<?xml version="1.0" encoding="UTF-8" standalone="no"?>
<!-- Created with Inkscape (http://www.inkscape.org/) -->

<svg
   width="16"
   height="16"
   viewBox="0 0 16 16"
   id="svg2"
   version="1.1"
   inkscape:version="1.4.2 (f4327f4, 2025-05-13)"
   sodipodi:docname="circuit_wires.svg"
   inkscape:export-filename="circuit_wires.png"
   inkscape:export-xdpi="96"
   inkscape:export-ydpi="96"
   xmlns:inkscape="http://www.inkscape.org/namespaces/inkscape"
   xmlns:sodipodi="http://sodipodi.sourceforge.net/DTD/sodipodi-0.dtd"
   xmlns="http://www.w3.org/2000/svg"
   xmlns:svg="http://www.w3.org/2000/svg"
   xmlns:rdf="http://www.w3.org/1999/02/22-rdf-syntax-ns#"
   xmlns:cc="http://creativecommons.org/ns#"
   xmlns:dc="http://purl.org/dc/elements/1.1/">
  <defs
     id="defs4" />
  <sodipodi:namedview
     id="base"
     pagecolor="#ffffff"
     bordercolor="#666666"
     borderopacity="1.0"
     inkscape:pageopacity="0.0"
     inkscape:pageshadow="2"
     inkscape:zoom="44.8"
     inkscape:cx="10.323661"
     inkscape:cy="7.890625"
     inkscape:document-units="px"
     inkscape:current-layer="layer1"
     showgrid="true"
     units="px"
     inkscape:window-width="1920"
     inkscape:window-height="1017"
     inkscape:window-x="1912"
     inkscape:window-y="-8"
     inkscape:window-maximized="1"
     inkscape:showpageshadow="2"
     inkscape:pagecheckerboard="0"
     inkscape:deskcolor="#d1d1d1">
    <inkscape:grid
       type="xygrid"
       id="grid4136"
       empspacing="4"
       originx="0"
       originy="0"
       spacingy="1"
       spacingx="1"
       units="px" />
  </sodipodi:namedview>
  <metadata
     id="metadata7">
    <rdf:RDF>
      <cc:Work
         rdf:about="">
        <dc:format>image/svg+xml</dc:format>
        <dc:type
           rdf:resource="http://purl.org/dc/dcmitype/StillImage" />
      </cc:Work>
    </rdf:RDF>
  </metadata>
  <g
     inkscape:label="Layer 1"
     inkscape:groupmode="layer"
     id="layer1"
     transform="translate(0,-1036.3622)">
    <path
       style="fill:none;fill-opacity:1;fill-rule:evenodd;stroke:#0a9207;stroke-width:2;stroke-linecap:round;stroke-linejoin:miter;stroke-miterlimit:4;stroke-dasharray:none;stroke-opacity:1"
       d="m 11.971578,1038.3319 c 0,0 1.095873,2.2908 0.210818,3.2424 -0.885055,0.9515 -3.4363021,-0.092 -4.9368661,1.6629 -1.500564,1.7548 -1.502232,4.4427 0.242386,6.2209 1.744618,1.7783 4.8151091,2.7121 6.4103741,1.1151 1.595265,-1.5969 1.340518,-4.7779 0.04172,-5.5998 -1.298799,-0.8219 -4.2311231,-0.8309 -4.7891811,0.8737 -0.558058,1.7047 2.3258251,2.558 2.3258251,2.558"
       id="path4138-0-4"
       inkscape:connector-curvature="0"
       sodipodi:nodetypes="czzzzzzc" />
    <path
       style="fill:none;fill-opacity:1;fill-rule:evenodd;stroke:#06fe00;stroke-width:1px;stroke-linecap:round;stroke-linejoin:miter;stroke-opacity:1"
       d="m 11.971762,1038.3323 c 0,0 1.095873,2.2908 0.210818,3.2424 -0.885055,0.9515 -3.4363011,-0.092 -4.9368651,1.6629 -1.500564,1.7548 -1.502232,4.4427 0.242385,6.2209 1.744618,1.7783 4.8151091,2.7121 6.4103751,1.1151 1.595265,-1.5969 1.340518,-4.7779 0.04172,-5.5998 -1.298799,-0.8219 -4.2311241,-0.8309 -4.7891821,0.8737 -0.558058,1.7047 2.3258251,2.558 2.3258251,2.558"
       id="path4138-4"
       inkscape:connector-curvature="0"
       sodipodi:nodetypes="czzzzzzc" />
    <path
       style="fill:none;fill-opacity:1;fill-rule:evenodd;stroke:#920707;stroke-width:2;stroke-linecap:round;stroke-linejoin:miter;stroke-miterlimit:4;stroke-dasharray:none;stroke-opacity:1"
       d="m 6.7889978,1037.3618 c 0,0 1.095873,2.2908 0.210818,3.2424 -0.885055,0.9515 -3.436302,-0.092 -4.936866,1.6629 -1.50056401,1.7548 -1.50223201,4.4427 0.242386,6.2209 1.744618,1.7783 4.815109,2.7121 6.410374,1.1151 1.5952652,-1.5969 1.3405182,-4.7779 0.04172,-5.5998 -1.298799,-0.8219 -4.231123,-0.8309 -4.789181,0.8737 -0.558058,1.7047 2.325825,2.558 2.325825,2.558"
       id="path4138-0"
       inkscape:connector-curvature="0"
       sodipodi:nodetypes="czzzzzzc" />
    <path
       style="fill:none;fill-opacity:1;fill-rule:evenodd;stroke:#fe0000;stroke-width:1px;stroke-linecap:round;stroke-linejoin:miter;stroke-opacity:1"
       d="m 6.7891818,1037.3622 c 0,0 1.0958736,2.2908 0.2108183,3.2424 -0.8850553,0.9515 -3.4363016,-0.092 -4.9368655,1.6629 -1.50056401,1.7548 -1.50223208,4.4427 0.2423856,6.2209 1.7446176,1.7783 4.8151087,2.7121 6.4103745,1.1151 1.5952653,-1.5969 1.3405183,-4.7779 0.04172,-5.5998 -1.2987992,-0.8219 -4.2311234,-0.8309 -4.7891817,0.8737 -0.5580582,1.7047 2.3258252,2.558 2.3258252,2.558"
       id="path4138"
       inkscape:connector-curvature="0"
       sodipodi:nodetypes="czzzzzzc" />
  </g>
</svg>
